<?xml version="1.0" encoding="utf-8"?>
<!-- Generator: $$$/GeneralStr/196=Adobe Illustrator 27.6.0, SVG Export Plug-In . SVG Version: 6.00 Build 0)  -->
<svg version="1.1" id="圖層_1" xmlns="http://www.w3.org/2000/svg" xmlns:xlink="http://www.w3.org/1999/xlink" x="0px" y="0px"
	 viewBox="0 0 56 56" style="enable-background:new 0 0 56 56;" xml:space="preserve">
<path d="M44.3,42.9c-2.5,0-4.4,2-4.4,4.5s2,4.5,4.4,4.5c2.4,0,4.4-2,4.4-4.5S46.9,42.9,44.3,42.9z M17.5,42.9c-2.5,0-4.4,2-4.4,4.5
	s2,4.5,4.4,4.5s4.4-2,4.4-4.5S20,42.9,17.5,42.9z M54.3,8.3c-0.6-0.8-1.4-1.2-2.4-1.2H12.4l-0.1-1.2c-0.2-1.1-1.1-1.8-2.2-1.8H3.3
	c-1.2,0-2.2,1-2.2,2.2s1,2.3,2.2,2.3h4.9l5.6,29.5c0.3,1.1,1.2,1.8,2.3,1.8h30.6c1.2,0,2.2-1,2.2-2.2c0-1.3-1-2.3-2.2-2.3H17.9
	L17,31h29.7c1.3,0,2.5-0.9,2.9-2.2L54.7,11C55,10,54.8,9,54.3,8.3z"/>
</svg>
