<?xml version="1.0" encoding="utf-8"?>
<!-- Generator: $$$/GeneralStr/196=Adobe Illustrator 27.6.0, SVG Export Plug-In . SVG Version: 6.00 Build 0)  -->
<svg version="1.1" id="圖層_1" xmlns="http://www.w3.org/2000/svg" xmlns:xlink="http://www.w3.org/1999/xlink" x="0px" y="0px"
	 viewBox="0 0 28 28" style="enable-background:new 0 0 28 28;" xml:space="preserve">
<style type="text/css">
	.st0{fill:#FFFFFF;}
</style>
<path class="st0" d="M19.9,17.5h-1.2l-0.4-0.4c1.5-1.8,2.5-4.1,2.5-6.6c0-5.6-4.5-10.2-10.2-10.2C4.9,0.3,0.3,4.9,0.3,10.5
	c0,5.6,4.5,10.2,10.2,10.2c2.5,0,4.8-0.9,6.6-2.5l0.4,0.4v1.2l7.8,7.8l2.3-2.3L19.9,17.5z M10.5,17.5c-3.9,0-7-3.1-7-7
	c0-3.9,3.1-7,7-7c3.9,0,7,3.1,7,7C17.5,14.4,14.4,17.5,10.5,17.5z"/>
</svg>
