<svg width="28" height="28" viewBox="0 0 28 28" fill="none" xmlns="http://www.w3.org/2000/svg">
<g clip-path="url(#clip0_13_4050)">
<path d="M24.5 9.33337V24.4919C24.5011 24.6451 24.472 24.797 24.4143 24.939C24.3567 25.0809 24.2717 25.2101 24.1641 25.3192C24.0565 25.4283 23.9285 25.5152 23.7873 25.5748C23.6462 25.6344 23.4947 25.6656 23.3415 25.6667H4.6585C4.35145 25.6667 4.05696 25.5448 3.83973 25.3278C3.6225 25.1108 3.50031 24.8164 3.5 24.5094V3.49071C3.5 2.86421 4.02383 2.33337 4.669 2.33337H17.4965L24.5 9.33337ZM22.1667 10.5H16.3333V4.66671H5.83333V23.3334H22.1667V10.5ZM9.33333 8.16671H12.8333V10.5H9.33333V8.16671ZM9.33333 12.8334H18.6667V15.1667H9.33333V12.8334ZM9.33333 17.5H18.6667V19.8334H9.33333V17.5Z" fill="#333333"/>
</g>
<defs>
<clipPath id="clip0_13_4050">
<rect width="28" height="28" fill="white"/>
</clipPath>
</defs>
</svg>
