<?xml version="1.0" encoding="utf-8"?>
<!-- Generator: Adobe Illustrator 26.5.0, SVG Export Plug-In . SVG Version: 6.00 Build 0)  -->
<svg version="1.1" id="圖層_1" xmlns="http://www.w3.org/2000/svg" xmlns:xlink="http://www.w3.org/1999/xlink" x="0px" y="0px"
	 viewBox="0 0 20 13.2" style="enable-background:new 0 0 20 13.2;" xml:space="preserve">
<style type="text/css">
	.st0{fill:none;}
</style>
<g>
	<path class="st0" d="M15.5,4.2l-2.1,1.3c0.1,0.3,0.2,0.7,0.2,1c0,2-1.6,3.6-3.6,3.6c-0.9,0-1.8-0.3-2.5-1L6,10.1
		c1.4,0.7,2.7,1.1,4,1.1c3.5,0,6.6-2.9,7.8-4C17.4,6.6,16.7,5.4,15.5,4.2z"/>
	<path class="st0" d="M10,8.3c1,0,1.7-0.8,1.7-1.7L9.2,8.1C9.4,8.3,9.7,8.3,10,8.3z"/>
	<path d="M19.8,7.1c0-0.1-0.8-2.1-2.6-3.9l1.5-0.9C19.1,2,19.3,1.4,19,1c-0.3-0.4-0.9-0.6-1.3-0.3L1.3,10.9
		c-0.4,0.3-0.6,0.9-0.3,1.3c0.2,0.3,0.5,0.5,0.8,0.5c0.2,0,0.3-0.1,0.5-0.1l1.9-1.2c2,1.2,3.9,1.9,5.8,1.9c5.1,0,9.4-4.8,9.6-5.1
		L20,7.7L19.8,7.1z M11.7,6.6c0,1-0.8,1.7-1.7,1.7c-0.3,0-0.5-0.1-0.8-0.2L11.7,6.6z M10,11.3c-1.3,0-2.6-0.4-4-1.1l1.5-0.9
		c0.7,0.6,1.5,1,2.5,1c2,0,3.6-1.6,3.6-3.6c0-0.4-0.1-0.7-0.2-1l2-1.3c1.2,1.1,1.9,2.4,2.2,3C16.6,8.4,13.4,11.3,10,11.3z"/>
	<path d="M1.3,9c0.2,0.2,0.4,0.3,0.6,0.3S2.4,9.2,2.6,9C3,8.6,3,8,2.6,7.7C2.4,7.5,2.3,7.4,2.2,7.3c0.3-0.6,0.9-1.5,1.7-2.5
		c1.7-2,3.7-2.9,6.1-2.9c0.9,0,1.9,0.2,2.7,0.5c0.5,0.2,1-0.1,1.2-0.5c0.2-0.5-0.1-1-0.5-1.2C12.3,0.2,11.2,0,10,0
		C3.1,0,0.3,6.8,0.2,7.1L0,7.7l0.4,0.4C0.4,8.1,0.7,8.5,1.3,9z"/>
</g>
</svg>
