<svg width="28" height="28" viewBox="0 0 28 28" fill="none" xmlns="http://www.w3.org/2000/svg">
<g clip-path="url(#clip0_13_4053)">
<path d="M19.833 3.49996H24.4997C24.8091 3.49996 25.1058 3.62288 25.3246 3.84167C25.5434 4.06046 25.6663 4.35721 25.6663 4.66663V23.3333C25.6663 23.6427 25.5434 23.9395 25.3246 24.1583C25.1058 24.377 24.8091 24.5 24.4997 24.5H3.49967C3.19026 24.5 2.89351 24.377 2.67472 24.1583C2.45592 23.9395 2.33301 23.6427 2.33301 23.3333V4.66663C2.33301 4.35721 2.45592 4.06046 2.67472 3.84167C2.89351 3.62288 3.19026 3.49996 3.49967 3.49996H8.16634V1.16663H10.4997V3.49996H17.4997V1.16663H19.833V3.49996ZM17.4997 5.83329H10.4997V8.16663H8.16634V5.83329H4.66634V10.5H23.333V5.83329H19.833V8.16663H17.4997V5.83329ZM23.333 12.8333H4.66634V22.1666H23.333V12.8333ZM6.99967 16.3333H9.33301V18.6666H6.99967V16.3333ZM11.6663 16.3333H20.9997V18.6666H11.6663V16.3333Z" fill="#333333"/>
</g>
<defs>
<clipPath id="clip0_13_4053">
<rect width="28" height="28" fill="white"/>
</clipPath>
</defs>
</svg>
