<?xml version="1.0" encoding="utf-8"?>
<!-- Generator: Adobe Illustrator 26.5.0, SVG Export Plug-In . SVG Version: 6.00 Build 0)  -->
<svg version="1.1" xmlns="http://www.w3.org/2000/svg" xmlns:xlink="http://www.w3.org/1999/xlink" x="0px" y="0px"
	 viewBox="0 0 56 56" style="enable-background:new 0 0 56 56;" xml:space="preserve">
<g id="圖層_1">
</g>
<g id="圖層_2">
	<path d="M29.2,0.1L29.2,0.1l-2.5,0v0C11.9,0.7,0,13,0,28c0,15,11.9,27.3,26.7,27.9v0h2.5v0C44.1,55.3,56,43,56,28
		C56,13,44.1,0.7,29.2,0.1z M14.7,28c0-2.7,0.2-5.3,0.6-7.7h11.4v15.4H15.4C15,33.3,14.7,30.7,14.7,28z M29.2,20.3h11.4
		c0.4,2.4,0.6,5,0.6,7.7c0,2.7-0.2,5.3-0.7,7.7H29.2V20.3z M43.1,20.3h9.1c0.8,2.4,1.2,5,1.2,7.7c0,2.7-0.4,5.3-1.2,7.7h-9.1
		c0.4-2.5,0.6-5,0.6-7.7C43.7,25.3,43.5,22.8,43.1,20.3z M51.3,17.8h-8.7c-1.3-5.9-3.7-10.9-6.8-14C42.8,6,48.4,11.2,51.3,17.8z
		 M40.1,17.8H29.2V2.6C34,3.6,38.2,9.6,40.1,17.8z M26.7,2.6v15.2H15.9C17.8,9.6,21.9,3.6,26.7,2.6z M20.1,3.8
		c-3.1,3.2-5.5,8.1-6.8,14H4.6C7.5,11.2,13.2,6,20.1,3.8z M3.7,20.3h9.1c-0.4,2.4-0.6,5-0.6,7.7c0,2.7,0.2,5.3,0.6,7.7H3.7
		c-0.8-2.4-1.2-5-1.2-7.7C2.5,25.3,2.9,22.7,3.7,20.3z M4.7,38.2h8.7c1.3,5.9,3.7,10.8,6.8,14C13.2,50,7.6,44.8,4.7,38.2z
		 M15.9,38.2h10.8v15.1C21.9,52.5,17.8,46.4,15.9,38.2z M29.2,53.4V38.2h10.8C38.1,46.4,34,52.5,29.2,53.4z M35.9,52.2
		c3.1-3.1,5.5-8.1,6.8-14h8.7C48.4,44.8,42.8,50,35.9,52.2z"/>
</g>
</svg>
