<svg width="28" height="28" viewBox="0 0 28 28" fill="none" xmlns="http://www.w3.org/2000/svg">
<g clip-path="url(#clip0_13_277)">
<path d="M10.8848 13.4168H13.4165C14.8089 13.4168 16.1442 13.97 17.1288 14.9545C18.1134 15.9391 18.6665 17.2744 18.6665 18.6668H10.4987L10.4998 19.8335H19.8332V18.6668C19.8295 17.4255 19.4708 16.211 18.7995 15.1668H22.1665C23.2693 15.1665 24.3496 15.4788 25.2821 16.0675C26.2146 16.6563 26.9612 17.4972 27.4352 18.493C24.676 22.1342 20.2088 24.5002 15.1665 24.5002C11.9453 24.5002 9.2165 23.8118 6.99984 22.6043V11.7497C8.41922 11.953 9.75956 12.5282 10.8848 13.4168ZM5.83317 22.1668C5.83317 22.4762 5.71025 22.773 5.49146 22.9918C5.27267 23.2106 4.97592 23.3335 4.6665 23.3335H2.33317C2.02375 23.3335 1.72701 23.2106 1.50821 22.9918C1.28942 22.773 1.1665 22.4762 1.1665 22.1668V11.6668C1.1665 11.3574 1.28942 11.0607 1.50821 10.8419C1.72701 10.6231 2.02375 10.5002 2.33317 10.5002H4.6665C4.97592 10.5002 5.27267 10.6231 5.49146 10.8419C5.71025 11.0607 5.83317 11.3574 5.83317 11.6668V22.1668ZM20.9998 5.8335C21.9281 5.8335 22.8183 6.20224 23.4747 6.85862C24.1311 7.515 24.4998 8.40524 24.4998 9.3335C24.4998 10.2618 24.1311 11.152 23.4747 11.8084C22.8183 12.4647 21.9281 12.8335 20.9998 12.8335C20.0716 12.8335 19.1813 12.4647 18.525 11.8084C17.8686 11.152 17.4998 10.2618 17.4998 9.3335C17.4998 8.40524 17.8686 7.515 18.525 6.85862C19.1813 6.20224 20.0716 5.8335 20.9998 5.8335ZM12.8332 2.3335C13.7614 2.3335 14.6517 2.70225 15.308 3.35862C15.9644 4.015 16.3332 4.90524 16.3332 5.8335C16.3332 6.76175 15.9644 7.65199 15.308 8.30837C14.6517 8.96475 13.7614 9.3335 12.8332 9.3335C11.9049 9.3335 11.0147 8.96475 10.3583 8.30837C9.70192 7.65199 9.33317 6.76175 9.33317 5.8335C9.33317 4.90524 9.70192 4.015 10.3583 3.35862C11.0147 2.70225 11.9049 2.3335 12.8332 2.3335Z" fill="#333333"/>
</g>
<defs>
<clipPath id="clip0_13_277">
<rect width="28" height="28" fill="white"/>
</clipPath>
</defs>
</svg>
