<svg width="28" height="28" viewBox="0 0 28 28" fill="none" xmlns="http://www.w3.org/2000/svg">
<g clip-path="url(#clip0_13_4038)">
<path d="M2.33301 4.6585C2.33514 4.35211 2.45772 4.05885 2.67427 3.84209C2.89082 3.62532 3.18395 3.50244 3.49034 3.5H24.509C25.1483 3.5 25.6663 4.01917 25.6663 4.6585V23.3415C25.6642 23.6479 25.5416 23.9411 25.3251 24.1579C25.1085 24.3747 24.8154 24.4976 24.509 24.5H3.49034C3.18329 24.4997 2.88892 24.3775 2.67191 24.1603C2.4549 23.943 2.33301 23.6486 2.33301 23.3415V4.6585ZM9.33301 5.83333V22.1667H18.6663V5.83333H9.33301ZM4.66634 5.83333V8.16667H6.99967V5.83333H4.66634ZM20.9997 5.83333V8.16667H23.333V5.83333H20.9997ZM4.66634 10.5V12.8333H6.99967V10.5H4.66634ZM20.9997 10.5V12.8333H23.333V10.5H20.9997ZM4.66634 15.1667V17.5H6.99967V15.1667H4.66634ZM20.9997 15.1667V17.5H23.333V15.1667H20.9997ZM4.66634 19.8333V22.1667H6.99967V19.8333H4.66634ZM20.9997 19.8333V22.1667H23.333V19.8333H20.9997Z" fill="#333333"/>
</g>
<defs>
<clipPath id="clip0_13_4038">
<rect width="28" height="28" fill="white"/>
</clipPath>
</defs>
</svg>
