<?xml version="1.0" encoding="utf-8"?>
<!-- Generator: Adobe Illustrator 26.5.0, SVG Export Plug-In . SVG Version: 6.00 Build 0)  -->
<svg version="1.1" id="圖層_1" xmlns="http://www.w3.org/2000/svg" xmlns:xlink="http://www.w3.org/1999/xlink" x="0px" y="0px"
	 viewBox="0 0 20 13.2" style="enable-background:new 0 0 20 13.2;" xml:space="preserve">
<g>
	<g>
		<path d="M10,13.2c-5.1,0-9.4-4.9-9.6-5.1L0,7.7l0.2-0.5C0.3,6.8,3.1,0,10,0c6.9,0,9.7,6.8,9.8,7.1L20,7.7l-0.4,0.4
			C19.4,8.3,15.1,13.2,10,13.2z M2.2,7.3c1.1,1.1,4.3,4,7.8,4s6.7-2.9,7.8-4c-0.3-0.6-0.9-1.5-1.7-2.5c-1.7-1.9-3.8-2.9-6.1-2.9
			s-4.4,1-6.1,2.9C3.1,5.7,2.5,6.7,2.2,7.3z"/>
	</g>
	<g>
		<path d="M10,10.2c-2,0-3.6-1.6-3.6-3.6c0-2,1.6-3.6,3.6-3.6s3.6,1.6,3.6,3.6C13.6,8.6,12,10.2,10,10.2z M10,4.8
			c-1,0-1.8,0.8-1.8,1.8S9,8.3,10,8.3s1.8-0.8,1.8-1.8S11,4.8,10,4.8z"/>
	</g>
</g>
</svg>
