<svg width="28" height="28" viewBox="0 0 28 28" fill="none" xmlns="http://www.w3.org/2000/svg">
<g clip-path="url(#clip0_13_4056)">
<path d="M24.5 7.88321L22.1667 10.2165V4.66671H11.6667V10.5H5.83336V23.3334H22.1667V20.1169L24.5 17.7835V24.5094C24.4997 24.8164 24.3775 25.1108 24.1603 25.3278C23.9431 25.5448 23.6486 25.6667 23.3415 25.6667H4.65853C4.50532 25.6656 4.35382 25.6344 4.21268 25.5748C4.07154 25.5152 3.94353 25.4283 3.83595 25.3192C3.72838 25.2101 3.64334 25.0809 3.5857 24.939C3.52806 24.797 3.49895 24.6451 3.50003 24.4919V9.33337L10.5035 2.33337H23.331C23.975 2.33337 24.5 2.86421 24.5 3.49071V7.88321ZM25.4077 10.2749L27.0574 11.9257L17.983 21L16.331 20.9977L16.3334 19.3504L25.4077 10.276V10.2749Z" fill="#333333"/>
</g>
<defs>
<clipPath id="clip0_13_4056">
<rect width="28" height="28" fill="white"/>
</clipPath>
</defs>
</svg>
