<svg width="28" height="28" viewBox="0 0 28 28" fill="none" xmlns="http://www.w3.org/2000/svg">
<path d="M3.49967 3.5H24.4997C24.8091 3.5 25.1058 3.62292 25.3246 3.84171C25.5434 4.0605 25.6663 4.35725 25.6663 4.66667V23.3333C25.6663 23.6428 25.5434 23.9395 25.3246 24.1583C25.1058 24.3771 24.8091 24.5 24.4997 24.5H3.49967C3.19026 24.5 2.89351 24.3771 2.67472 24.1583C2.45592 23.9395 2.33301 23.6428 2.33301 23.3333V4.66667C2.33301 4.35725 2.45592 4.0605 2.67472 3.84171C2.89351 3.62292 3.19026 3.5 3.49967 3.5ZM12.98 14H4.66634V22.1667H23.333V14H22.0193C21.7598 15.0013 21.1752 15.888 20.3571 16.5211C19.5391 17.1541 18.534 17.4976 17.4997 17.4976C16.4653 17.4976 15.4602 17.1541 14.6422 16.5211C13.8242 15.888 13.2395 15.0013 12.98 14ZM12.98 11.6667C13.2395 10.6654 13.8242 9.77863 14.6422 9.14558C15.4602 8.51254 16.4653 8.16906 17.4997 8.16906C18.534 8.16906 19.5391 8.51254 20.3571 9.14558C21.1752 9.77863 21.7598 10.6654 22.0193 11.6667H23.333V5.83333H4.66634V11.6667H12.98ZM17.4997 15.1667C18.1185 15.1667 18.712 14.9208 19.1496 14.4832C19.5872 14.0457 19.833 13.4522 19.833 12.8333C19.833 12.2145 19.5872 11.621 19.1496 11.1834C18.712 10.7458 18.1185 10.5 17.4997 10.5C16.8808 10.5 16.2873 10.7458 15.8498 11.1834C15.4122 11.621 15.1663 12.2145 15.1663 12.8333C15.1663 13.4522 15.4122 14.0457 15.8498 14.4832C16.2873 14.9208 16.8808 15.1667 17.4997 15.1667ZM6.99967 17.5H9.33301V19.8333H6.99967V17.5Z" fill="#333333"/>
</svg>
