<?xml version="1.0" encoding="utf-8"?>
<!-- Generator: Adobe Illustrator 26.5.0, SVG Export Plug-In . SVG Version: 6.00 Build 0)  -->
<svg version="1.1" id="圖層_5" xmlns="http://www.w3.org/2000/svg" xmlns:xlink="http://www.w3.org/1999/xlink" x="0px" y="0px"
	 viewBox="0 0 48 48" style="enable-background:new 0 0 48 48;" xml:space="preserve">
<style type="text/css">
	.st0{fill:#fff;}
</style>
<g>
	<path class="st0" d="M10.4,33.1c-0.6,0-1,0.4-1,1v12.8c0,0.6,0.4,1,1,1s1-0.4,1-1V34.1C11.4,33.6,11,33.1,10.4,33.1z"/>
	<path class="st0" d="M9.4,15.9c2.3,0,4.1-1.9,4.1-4.2v-1.1c0-2.3-1.9-4.2-4.1-4.2s-4.1,1.9-4.1,4.2v1.1C5.2,14.1,7.1,15.9,9.4,15.9
		z M7.2,10.7c0-1.2,1-2.2,2.1-2.2s2.1,1,2.1,2.2v1.1c0,1.2-1,2.2-2.1,2.2s-2.1-1-2.1-2.2V10.7z"/>
	<path class="st0" d="M37.6,33.1c-0.6,0-1,0.4-1,1v12.8c0,0.6,0.4,1,1,1s1-0.4,1-1V34.1C38.6,33.6,38.1,33.1,37.6,33.1z"/>
	<path class="st0" d="M39.7,18.2h-3.9C30.5,16.1,24.4,14,24.3,14c0,0-0.1,0-0.1,0c-0.1,0-0.1,0-0.2,0c-0.1,0-0.1,0-0.2,0
		c0,0-0.1,0-0.1,0c-0.1,0-6.2,2.1-11.4,4.2H8.3c-4.7,0-7.3,2.2-7.3,6.3v5.3c0,1.7,1.4,3.1,3.1,3.1h1.1v13.9c0,0.6,0.4,1,1,1
		s1-0.4,1-1V24.5c0-0.6-0.4-1-1-1s-1,0.4-1,1V31H4.1c-0.6,0-1.1-0.5-1.1-1.1v-5.3c0-1.9,0.5-4.3,5.3-4.3h4.1c0.1,0,0.3,0,0.4-0.1
		c4.5-1.8,9.8-3.7,11.2-4.1c1.3,0.5,6.7,2.3,11.2,4.1c0.1,0,0.2,0.1,0.4,0.1h4.1c4.7,0,5.3,2.5,5.3,4.3v5.3c0,0.6-0.5,1.1-1.1,1.1
		h-1.1v-6.5c0-0.6-0.4-1-1-1s-1,0.4-1,1v22.4c0,0.6,0.4,1,1,1s1-0.4,1-1V33h1.1c1.7,0,3.1-1.4,3.1-3.1v-5.3
		C46.9,20.5,44.4,18.2,39.7,18.2z"/>
	<path class="st0" d="M33.9,23.7l-9.4-5.3c0,0-0.1,0-0.1,0c-0.1,0-0.1-0.1-0.2-0.1c-0.1,0-0.1,0-0.2,0c-0.1,0-0.1,0-0.2,0
		c-0.1,0-0.1,0-0.2,0.1c0,0-0.1,0-0.1,0l-9.4,5.3c-0.3,0.2-0.5,0.5-0.5,0.9v22.4c0,0.6,0.4,1,1,1s1-0.4,1-1V25.1l8.4-4.8l8.4,4.8
		v21.8c0,0.6,0.4,1,1,1s1-0.4,1-1V24.5C34.4,24.2,34.2,23.8,33.9,23.7z"/>
	<path class="st0" d="M38.6,15.9c2.3,0,4.1-1.9,4.1-4.2v-1.1c0-2.3-1.9-4.2-4.1-4.2s-4.1,1.9-4.1,4.2v1.1
		C34.5,14.1,36.3,15.9,38.6,15.9z M36.5,10.7c0-1.2,1-2.2,2.1-2.2s2.1,1,2.1,2.2v1.1c0,1.2-1,2.2-2.1,2.2s-2.1-1-2.1-2.2V10.7z"/>
	<path class="st0" d="M24,7.4c0.6,0,1-0.4,1-1V1.1c0-0.6-0.4-1-1-1s-1,0.4-1,1v5.3C23,7,23.4,7.4,24,7.4z"/>
	<path class="st0" d="M28.2,8.5c0.3,0,0.5-0.1,0.7-0.3L31,6.1c0.4-0.4,0.4-1,0-1.4c-0.4-0.4-1-0.4-1.4,0l-2.1,2.1
		c-0.4,0.4-0.4,1,0,1.4C27.7,8.4,27.9,8.5,28.2,8.5z"/>
	<path class="st0" d="M30.3,9.7h-1c-0.6,0-1,0.4-1,1s0.4,1,1,1h1c0.6,0,1-0.4,1-1S30.8,9.7,30.3,9.7z"/>
	<path class="st0" d="M19.1,8.2c0.2,0.2,0.5,0.3,0.7,0.3c0.3,0,0.5-0.1,0.7-0.3c0.4-0.4,0.4-1,0-1.4l-2.1-2.1c-0.4-0.4-1-0.4-1.4,0
		s-0.4,1,0,1.4L19.1,8.2z"/>
	<path class="st0" d="M17.7,11.7h1c0.6,0,1-0.4,1-1s-0.4-1-1-1h-1c-0.6,0-1,0.4-1,1S17.2,11.7,17.7,11.7z"/>
</g>
</svg>
