<?xml version="1.0" encoding="utf-8"?>
<!-- Generator: Adobe Illustrator 26.5.0, SVG Export Plug-In . SVG Version: 6.00 Build 0)  -->
<svg version="1.1" id="圖層_2" xmlns="http://www.w3.org/2000/svg" xmlns:xlink="http://www.w3.org/1999/xlink" x="0px" y="0px"
	 viewBox="0 0 48 48" style="enable-background:new 0 0 48 48;" xml:space="preserve">
<style type="text/css">
	.st0{fill:#FFF;}
</style>
<g>
	<path class="st0" d="M28.9,38.6c0.5-0.4,0.9-0.9,1.3-1.5c0.6-0.9,0.8-1.9,0.8-3v-5c0-3.4-2.6-6-6-6h-2c-3.4,0-6,2.6-6,6v0
		c0,0,0,0,0,0v5c0,1.1,0.3,2.1,0.8,3c0.4,0.6,0.8,1.1,1.3,1.5C15.4,39.4,12,41.2,12,44v3c0,0.6,0.4,1,1,1s1-0.4,1-1v-3
		c0-1.1,1.6-2.3,3.8-3l5.6,3.9c0.2,0.1,0.4,0.2,0.6,0.2s0.4-0.1,0.6-0.2l5.6-3.9c2.3,0.8,3.8,1.9,3.8,3v3c0,0.6,0.4,1,1,1s1-0.4,1-1
		v-3C36,41.2,32.6,39.4,28.9,38.6z M23,25h2c2.3,0,4,1.7,4,4v0.2c-1.2,0.2-3.6,0.3-5.4-1c-1.4-0.9-3.1-0.8-4.3-0.6
		C19.8,26,21.2,25,23,25z M23,38c-1.4,0-2.7-0.7-3.4-2c-0.4-0.6-0.6-1.3-0.6-2v-4.3c0.8-0.3,2.4-0.6,3.4,0.1
		c1.7,1.1,3.7,1.4,5.2,1.4c0.5,0,1,0,1.4-0.1V34c0,0.7-0.2,1.4-0.6,2c-0.8,1.3-2,2-3.4,2H23z M24,42.8l-3.6-2.5
		c1.1-0.2,2.4-0.3,3.6-0.3s2.4,0.1,3.6,0.3L24,42.8z"/>
	<path class="st0" d="M17.9,13.3L17,18.8c-0.1,0.4,0.1,0.7,0.4,1c0.3,0.2,0.7,0.3,1,0.1l5.6-2.8l5.6,2.8C29.7,20,29.8,20,30,20
		c0.2,0,0.4-0.1,0.6-0.2c0.3-0.2,0.5-0.6,0.4-1l-0.9-5.5l4.6-4.6c0.3-0.3,0.4-0.7,0.2-1S34.5,7.1,34.1,7l-6.5-0.9l-2.8-5.5
		c-0.3-0.7-1.5-0.7-1.8,0l-2.8,5.5L13.9,7c-0.4,0.1-0.7,0.3-0.8,0.7s0,0.8,0.2,1L17.9,13.3z M21.1,8c0.3,0,0.6-0.2,0.8-0.5L24,3.2
		l2.1,4.2c0.1,0.3,0.4,0.5,0.8,0.5l5,0.7l-3.6,3.6c-0.2,0.2-0.3,0.6-0.3,0.9l0.7,4.1l-4.2-2.1C24.3,15,24.2,15,24,15s-0.3,0-0.4,0.1
		l-4.2,2.1l0.7-4.1c0.1-0.3-0.1-0.6-0.3-0.9l-3.6-3.6L21.1,8z"/>
	<path class="st0" d="M48,14.7c-0.1-0.3-0.4-0.6-0.7-0.7l-3.6-0.9l-1.8-3.6c-0.3-0.7-1.5-0.7-1.8,0l-1.8,3.6L34.8,14
		c-0.3,0.1-0.6,0.4-0.7,0.7s0,0.7,0.3,1l2.6,2.6L36,21.8c-0.1,0.4,0,0.8,0.3,1c0.3,0.2,0.7,0.3,1.1,0.1l3.6-1.8l3.6,1.8
		C44.7,23,44.8,23,45,23c0.2,0,0.4-0.1,0.6-0.2c0.3-0.2,0.4-0.6,0.3-1l-0.9-3.5l2.6-2.6C48,15.5,48.1,15.1,48,14.7z M43.3,17.3
		c-0.2,0.2-0.3,0.6-0.3,0.9l0.5,1.9l-2.1-1C41.3,19,41.2,19,41,19s-0.3,0-0.4,0.1l-2.1,1l0.5-1.9c0.1-0.3,0-0.7-0.3-0.9L37,15.5
		l2.3-0.6c0.3-0.1,0.5-0.3,0.7-0.5l1.1-2.2l1.1,2.2c0.1,0.3,0.4,0.5,0.7,0.5l2.3,0.6L43.3,17.3z"/>
	<path class="st0" d="M11.1,18.3l2.6-2.6c0.3-0.3,0.4-0.6,0.3-1s-0.4-0.6-0.7-0.7l-3.6-0.9L7.9,9.6c-0.3-0.7-1.5-0.7-1.8,0l-1.8,3.6
		L0.8,14c-0.3,0.1-0.6,0.4-0.7,0.7s0,0.7,0.3,1l2.6,2.6L2,21.8c-0.1,0.4,0,0.8,0.3,1c0.3,0.2,0.7,0.3,1.1,0.1L7,21.1l3.6,1.8
		C10.7,23,10.8,23,11,23c0.2,0,0.4-0.1,0.6-0.2c0.3-0.2,0.4-0.6,0.3-1L11.1,18.3z M9.3,17.3C9,17.5,8.9,17.9,9,18.2l0.5,1.9l-2.1-1
		C7.3,19,7.2,19,7,19s-0.3,0-0.4,0.1l-2.1,1L5,18.2c0.1-0.3,0-0.7-0.3-0.9L3,15.5L5.2,15c0.3-0.1,0.5-0.3,0.7-0.5L7,12.2l1.1,2.2
		c0.1,0.3,0.4,0.5,0.7,0.5l2.3,0.6L9.3,17.3z"/>
</g>
</svg>
