<?xml version="1.0" encoding="utf-8"?>
<!-- Generator: Adobe Illustrator 26.5.0, SVG Export Plug-In . SVG Version: 6.00 Build 0)  -->
<svg version="1.1" id="圖層_3" xmlns="http://www.w3.org/2000/svg" xmlns:xlink="http://www.w3.org/1999/xlink" x="0px" y="0px"
	 viewBox="0 0 48 48" style="enable-background:new 0 0 48 48;" xml:space="preserve">
<style type="text/css">
	.st0{fill:#FFF;}
</style>
<g>
	<path class="st0" d="M31.9,12.5c-0.3-0.5-0.9-0.6-1.4-0.4l-6.1,3.5l-4.5-8.1C19.6,7,19,6.9,18.5,7.1C18,7.4,17.9,8,18.1,8.5l5,9
		c0,0,0,0,0,0c0,0,0,0,0,0c0,0,0.1,0.1,0.1,0.1c0,0,0,0.1,0.1,0.1c0,0,0.1,0.1,0.1,0.1c0,0,0.1,0,0.1,0.1c0.1,0,0.1,0,0.2,0.1
		c0,0,0,0,0.1,0c0.1,0,0.2,0,0.3,0c0.1,0,0.2,0,0.2,0c0,0,0.1,0,0.1,0c0.1,0,0.1,0,0.2-0.1c0,0,0,0,0,0c0,0,0,0,0,0l7-4
		C32,13.6,32.1,13,31.9,12.5z"/>
	<path class="st0" d="M10,41c-3.7,0-8,1-8,4v2c0,0.6,0.4,1,1,1s1-0.4,1-1v-2c0-1,2.4-2,6-2s6,1,6,2v2c0,0.6,0.4,1,1,1s1-0.4,1-1v-2
		C18,42,13.7,41,10,41z"/>
	<path class="st0" d="M10,39c2.8,0,5-2.2,5-4.9v-1.3c0-2.7-2.2-4.9-5-4.9s-5,2.2-5,4.9v1.3C5,36.8,7.2,39,10,39z M7,32.9
		c0-1.6,1.3-2.9,3-2.9s3,1.3,3,2.9v1.3c0,1.6-1.3,2.9-3,2.9s-3-1.3-3-2.9V32.9z"/>
	<path class="st0" d="M38,41c-3.7,0-8,1-8,4v2c0,0.6,0.4,1,1,1s1-0.4,1-1v-2c0-1,2.4-2,6-2s6,1,6,2v2c0,0.6,0.4,1,1,1s1-0.4,1-1v-2
		C46,42,41.7,41,38,41z"/>
	<path class="st0" d="M33,32.9v1.3c0,2.7,2.2,4.9,5,4.9s5-2.2,5-4.9v-1.3c0-2.7-2.2-4.9-5-4.9S33,30.2,33,32.9z M41,32.9v1.3
		c0,1.6-1.3,2.9-3,2.9s-3-1.3-3-2.9v-1.3c0-1.6,1.3-2.9,3-2.9S41,31.3,41,32.9z"/>
	<path class="st0" d="M31,40c0.6,0,1-0.4,1-1c0-3-4.3-4-8-4s-8,1-8,4c0,0.6,0.4,1,1,1s1-0.4,1-1c0-1,2.4-2,6-2s6,1,6,2
		C30,39.6,30.4,40,31,40z"/>
	<path class="st0" d="M19,26.9v1.3c0,2.7,2.2,4.9,5,4.9s5-2.2,5-4.9v-1.3c0-2.7-2.2-4.9-5-4.9S19,24.2,19,26.9z M27,26.9v1.3
		c0,1.6-1.3,2.9-3,2.9s-3-1.3-3-2.9v-1.3c0-1.6,1.3-2.9,3-2.9S27,25.3,27,26.9z"/>
	<path class="st0" d="M7,17c0,2.2,0.4,4.3,1.2,6.4c0.2,0.5,0.8,0.8,1.3,0.6c0.5-0.2,0.8-0.8,0.6-1.3c-0.6-1.5-0.9-3-1-4.6h1
		c0.6,0,1-0.4,1-1s-0.4-1-1-1H9.1C9.5,8.5,15.5,2.5,23,2.1V3c0,0.6,0.4,1,1,1s1-0.4,1-1V2.1C32.5,2.5,38.5,8.5,38.9,16H38
		c-0.6,0-1,0.4-1,1s0.4,1,1,1h1c-0.1,1.6-0.4,3.1-1,4.6c-0.2,0.5,0,1.1,0.6,1.3c0.1,0,0.2,0.1,0.4,0.1c0.4,0,0.8-0.2,0.9-0.6
		c0.8-2,1.2-4.2,1.2-6.4c0-9.4-7.6-17-17-17c0,0,0,0,0,0c0,0,0,0,0,0C14.6,0,7,7.6,7,17C7,17,7,17,7,17C7,17,7,17,7,17z"/>
</g>
</svg>
