<?xml version="1.0" encoding="utf-8"?>
<!-- Generator: Adobe Illustrator 26.5.0, SVG Export Plug-In . SVG Version: 6.00 Build 0)  -->
<svg version="1.1" xmlns="http://www.w3.org/2000/svg" xmlns:xlink="http://www.w3.org/1999/xlink" x="0px" y="0px"
	 viewBox="0 0 48 48" style="enable-background:new 0 0 48 48;" xml:space="preserve">
<style type="text/css">
	.st0{fill:#fff;}
	.st1{display:none;}
	.st2{display:inline;}
	
		.st3{clip-path:url(#SVGID_00000086666455199024042890000013574472238879028868_);fill:none;stroke:#434343;stroke-width:2;stroke-linecap:round;stroke-linejoin:round;}
</style>
<g id="圖層_4">
	<g>
		<path class="st0" d="M7,43c-4.4,0-7,1.9-7,5h2c0-2.7,3.5-3,5-3s5,0.3,5,3h2C14,44.9,11.4,43,7,43z"/>
		<path class="st0" d="M11,38v-1c0-2.2-1.8-4-4-4s-4,1.8-4,4v1c0,2.2,1.8,4,4,4S11,40.2,11,38z M5,38v-1c0-1.1,0.9-2,2-2s2,0.9,2,2
			v1c0,1.1-0.9,2-2,2S5,39.1,5,38z"/>
		<path class="st0" d="M24,43c-4.4,0-7,1.9-7,5h2c0-2.7,3.5-3,5-3s5,0.3,5,3h2C31,44.9,28.4,43,24,43z"/>
		<path class="st0" d="M20,37v1c0,2.2,1.8,4,4,4s4-1.8,4-4v-1c0-2.2-1.8-4-4-4S20,34.8,20,37z M26,37v1c0,1.1-0.9,2-2,2s-2-0.9-2-2
			v-1c0-1.1,0.9-2,2-2S26,35.9,26,37z"/>
		<path class="st0" d="M41,43c-4.4,0-7,1.9-7,5h2c0-2.7,3.5-3,5-3s5,0.3,5,3h2C48,44.9,45.4,43,41,43z"/>
		<path class="st0" d="M37,37v1c0,2.2,1.8,4,4,4s4-1.8,4-4v-1c0-2.2-1.8-4-4-4S37,34.8,37,37z M43,37v1c0,1.1-0.9,2-2,2s-2-0.9-2-2
			v-1c0-1.1,0.9-2,2-2S43,35.9,43,37z"/>
		<path class="st0" d="M29.1,10.4c-0.2-0.7-0.7-1.1-1.3-1.4c-0.6-0.2-1.3-0.2-2.2,0.1C25.5,9.1,14.7,13,8,13c-5.5,0-8,2.5-8,8v6
			c0,1.6,1.4,3,3,3h2c0.6,0,1-0.4,1-1v-6H4v5H3c-0.5,0-1-0.5-1-1v-6c0-4.4,1.6-6,6-6c7.1,0,17.9-3.9,18.3-4.1
			c0.5-0.2,0.7-0.1,0.8-0.1c0,0,0.1,0,0.1,0.2c0.2,0.5-0.2,1.6-1.5,2c0,0-0.1,0-0.1,0l-11,5C14.2,18.3,14,18.6,14,19v10h2v-9.4
			l10.4-4.7C28.7,14.1,29.6,12,29.1,10.4z"/>
		<path class="st0" d="M19,4h1v3c0,0.6,0.4,1,1,1s1-0.4,1-1V4h22v20H22v-4c0-0.6-0.4-1-1-1s-1,0.4-1,1v5c0,0.6,0.4,1,1,1h24
			c0.6,0,1-0.4,1-1V4h1c0.6,0,1-0.4,1-1s-0.4-1-1-1H19c-0.6,0-1,0.4-1,1S18.4,4,19,4z"/>
		<path class="st0" d="M26.7,21.7l4.4-4.4l3.3,2.5c0.2,0.2,0.5,0.2,0.8,0.2c0.3-0.1,0.5-0.2,0.7-0.5l6-10C42.1,9,42,8.4,41.5,8.1
			C41,7.9,40.4,8,40.1,8.5l-5.4,9l-3.1-2.3c-0.4-0.3-1-0.3-1.3,0.1l-5,5c-0.4,0.4-0.4,1,0,1.4c0.2,0.2,0.5,0.3,0.7,0.3
			S26.5,21.9,26.7,21.7z"/>
		<path class="st0" d="M10,11c2.8,0,5-2.2,5-4.9V4.9C15,2.2,12.8,0,10,0S5,2.2,5,4.9v1.3C5,8.8,7.2,11,10,11z M7,4.9
			C7,3.3,8.3,2,10,2s3,1.3,3,2.9v1.3C13,7.7,11.7,9,10,9S7,7.7,7,6.1V4.9z"/>
	</g>
</g>
<g id="圖層_5" class="st1">
	<g class="st2">
		<g>
			<defs>
				<rect id="SVGID_1_" x="2" y="1.5" width="44" height="45"/>
			</defs>
			<clipPath id="SVGID_00000137850639292768567090000015214091561054248869_">
				<use xlink:href="#SVGID_1_"  style="overflow:visible;"/>
			</clipPath>
			
				<line style="clip-path:url(#SVGID_00000137850639292768567090000015214091561054248869_);fill:none;stroke:#434343;stroke-width:2;stroke-linecap:round;stroke-linejoin:round;" x1="11" y1="33.5" x2="11" y2="45.5"/>
			
				<line style="clip-path:url(#SVGID_00000137850639292768567090000015214091561054248869_);fill:none;stroke:#434343;stroke-width:2;stroke-linecap:round;stroke-linejoin:round;" x1="7" y1="24.5" x2="7" y2="45.5"/>
			
				<path style="clip-path:url(#SVGID_00000137850639292768567090000015214091561054248869_);fill:none;stroke:#434343;stroke-width:2;stroke-linecap:round;stroke-linejoin:round;" d="
				M24,15.5c0,0-6,2-11.1,4H9c-3,0-6,1-6,5v5c0,1.1,0.9,2,2,2h2"/>
			
				<polyline style="clip-path:url(#SVGID_00000137850639292768567090000015214091561054248869_);fill:none;stroke:#434343;stroke-width:2;stroke-linecap:round;stroke-linejoin:round;" points="
				15,45.5 15,24.5 24,19.5 			"/>
			
				<path style="clip-path:url(#SVGID_00000137850639292768567090000015214091561054248869_);fill:none;stroke:#434343;stroke-width:2;stroke-linecap:round;stroke-linejoin:round;" d="
				M13,11.5c0-1.7-1.3-3-3-3s-3,1.3-3,3v1c0,1.7,1.3,3,3,3s3-1.3,3-3V11.5z"/>
			
				<line style="clip-path:url(#SVGID_00000137850639292768567090000015214091561054248869_);fill:none;stroke:#434343;stroke-width:2;stroke-linecap:round;stroke-linejoin:round;" x1="37" y1="33.5" x2="37" y2="45.5"/>
			
				<line style="clip-path:url(#SVGID_00000137850639292768567090000015214091561054248869_);fill:none;stroke:#434343;stroke-width:2;stroke-linecap:round;stroke-linejoin:round;" x1="41" y1="24.5" x2="41" y2="45.5"/>
			
				<path style="clip-path:url(#SVGID_00000137850639292768567090000015214091561054248869_);fill:none;stroke:#434343;stroke-width:2;stroke-linecap:round;stroke-linejoin:round;" d="
				M24,15.5c0,0,6,2,11.1,4H39c3,0,6,1,6,5v5c0,1.1-0.9,2-2,2h-2"/>
			
				<polyline style="clip-path:url(#SVGID_00000137850639292768567090000015214091561054248869_);fill:none;stroke:#434343;stroke-width:2;stroke-linecap:round;stroke-linejoin:round;" points="
				33,45.5 33,24.5 24,19.5 			"/>
			
				<path style="clip-path:url(#SVGID_00000137850639292768567090000015214091561054248869_);fill:none;stroke:#434343;stroke-width:2;stroke-linecap:round;stroke-linejoin:round;" d="
				M35,11.5c0-1.7,1.3-3,3-3s3,1.3,3,3v1c0,1.7-1.3,3-3,3s-3-1.3-3-3V11.5z"/>
			
				<line style="clip-path:url(#SVGID_00000137850639292768567090000015214091561054248869_);fill:none;stroke:#434343;stroke-width:2;stroke-linecap:round;stroke-linejoin:round;" x1="24" y1="7.5" x2="24" y2="2.5"/>
			
				<line style="clip-path:url(#SVGID_00000137850639292768567090000015214091561054248869_);fill:none;stroke:#434343;stroke-width:2;stroke-linecap:round;stroke-linejoin:round;" x1="28" y1="8.5" x2="30" y2="6.5"/>
			
				<line style="clip-path:url(#SVGID_00000137850639292768567090000015214091561054248869_);fill:none;stroke:#434343;stroke-width:2;stroke-linecap:round;stroke-linejoin:round;" x1="29" y1="11.5" x2="30" y2="11.5"/>
			
				<line style="clip-path:url(#SVGID_00000137850639292768567090000015214091561054248869_);fill:none;stroke:#434343;stroke-width:2;stroke-linecap:round;stroke-linejoin:round;" x1="20" y1="8.5" x2="18" y2="6.5"/>
			
				<line style="clip-path:url(#SVGID_00000137850639292768567090000015214091561054248869_);fill:none;stroke:#434343;stroke-width:2;stroke-linecap:round;stroke-linejoin:round;" x1="19" y1="11.5" x2="18" y2="11.5"/>
		</g>
	</g>
</g>
</svg>
