<?xml version="1.0" encoding="utf-8"?>
<!-- Generator: Adobe Illustrator 26.5.0, SVG Export Plug-In . SVG Version: 6.00 Build 0)  -->
<svg version="1.1" id="圖層_1" xmlns="http://www.w3.org/2000/svg" xmlns:xlink="http://www.w3.org/1999/xlink" x="0px" y="0px"
	 viewBox="0 0 48 48" style="enable-background:new 0 0 48 48;" xml:space="preserve">
<style type="text/css">
	.st0{fill:#FFF;}
</style>
<g>
	<path class="st0" d="M40.5,38c-0.6,0-1,0.4-1,1v5c0,1.1-0.9,2-2,2h-30c-1.1,0-2-0.9-2-2V8c0-1.1,0.9-2,2-2h2c0.6,0,1-0.4,1-1
		s-0.4-1-1-1h-2c-2.2,0-4,1.8-4,4v36c0,2.2,1.8,4,4,4h30c2.2,0,4-1.8,4-4v-5C41.5,38.4,41.1,38,40.5,38z"/>
	<path class="st0" d="M35.5,6h2c1.1,0,2,0.9,2,2v1c0,0.6,0.4,1,1,1s1-0.4,1-1V8c0-2.2-1.8-4-4-4h-2c-0.6,0-1,0.4-1,1S34.9,6,35.5,6z
		"/>
	<path class="st0" d="M12.5,9h20c0,0,0,0,0,0s0,0,0,0c0.6,0,1-0.4,1-1V5.6c0-1.5-1.1-2.6-2.7-2.6h-4.4c-0.4-1.7-2-3-3.9-3
		s-3.4,1.3-3.9,3h-4.4c-1.6,0-2.7,1.1-2.7,2.6V8C11.5,8.6,11.9,9,12.5,9z M14.2,5h5.3c0.6,0,1-0.4,1-1c0-1.1,0.9-2,2-2s2,0.9,2,2
		c0,0.6,0.4,1,1,1c0,0,0,0,0,0s0,0,0,0h5.3c0.7,0,0.7,0.5,0.7,0.6V7h-18V5.6C13.5,5.5,13.5,5,14.2,5z"/>
	<path class="st0" d="M8.5,9c-0.6,0-1,0.4-1,1v33c0,0.6,0.4,1,1,1h28c0.6,0,1-0.4,1-1v-4c0-0.6-0.4-1-1-1s-1,0.4-1,1v3h-26V10
		C9.5,9.4,9.1,9,8.5,9z"/>
	<path class="st0" d="M41.5,13h-17c-1.7,0-3,1.3-3,3v16c0,1.7,1.3,3,3,3h1v3c0,0.4,0.2,0.7,0.5,0.9c0.1,0.1,0.3,0.1,0.5,0.1
		c0.2,0,0.4-0.1,0.6-0.2l5.7-3.8h8.7c1.7,0,3-1.3,3-3V16C44.5,14.3,43.2,13,41.5,13z M42.5,32c0,0.6-0.4,1-1,1h-9
		c-0.2,0-0.4,0.1-0.6,0.2l-4.4,3V34c0-0.6-0.4-1-1-1h-2c-0.6,0-1-0.4-1-1V16c0-0.6,0.4-1,1-1h17c0.6,0,1,0.4,1,1V32z"/>
	<path class="st0" d="M34.5,28l0-5c0-0.3-0.1-0.5-0.3-0.7S33.8,22,33.5,22h-1c-0.6,0-1,0.4-1,1s0.4,1,1,1h0l0,4h0c-0.6,0-1,0.4-1,1
		s0.4,1,1,1h2c0.6,0,1-0.4,1-1C35.5,28.4,35.1,28,34.5,28z"/>
	<path class="st0" d="M32.5,20h1c0.6,0,1-0.4,1-1s-0.4-1-1-1h-1c-0.6,0-1,0.4-1,1S31.9,20,32.5,20z"/>
</g>
</svg>
