<svg width="62" height="62" viewBox="0 0 62 62" fill="none" xmlns="http://www.w3.org/2000/svg">
<path d="M39.7885 54.25V36.2545H45.8154L46.717 29.2588H39.7885V24.7948C39.7885 22.7695 40.3517 21.3874 43.2553 21.3874H46.9598V15.1306C45.1665 14.9403 43.3641 14.848 41.5607 14.8542C36.2209 14.8542 32.5655 18.1143 32.5655 24.1025V29.2588H26.5257V36.2545H32.5655V54.25H10.3333C9.64819 54.25 8.99111 53.9778 8.50664 53.4934C8.02217 53.0089 7.75 52.3518 7.75 51.6667V10.3333C7.75 9.64819 8.02217 8.99111 8.50664 8.50664C8.99111 8.02217 9.64819 7.75 10.3333 7.75H51.6667C52.3518 7.75 53.0089 8.02217 53.4934 8.50664C53.9778 8.99111 54.25 9.64819 54.25 10.3333V51.6667C54.25 52.3518 53.9778 53.0089 53.4934 53.4934C53.0089 53.9778 52.3518 54.25 51.6667 54.25H39.7885V54.25Z" fill="white"/>
</svg>
