<svg width="24" height="23" viewBox="0 0 24 23" fill="none" xmlns="http://www.w3.org/2000/svg">
<g clip-path="url(#clip0_13_5605)">
<path d="M7.79029 19.2526C7.8 17.2127 6.08415 15.5519 3.95088 15.5379C1.80546 15.524 0.0483568 17.1941 0.0507838 19.2457C0.0532107 21.2809 1.78362 22.9441 3.90962 22.9557C6.0429 22.9673 7.78058 21.3065 7.79029 19.2526Z" fill="#129096"/>
<path d="M21.937 23.0001C21.5705 22.928 21.2113 22.8443 20.9031 22.6186C20.3352 22.2 20.1216 21.6301 20.1192 20.9695C20.1119 19.625 19.9348 18.2992 19.6023 16.9919C19.0805 14.9427 18.1971 13.0469 16.9521 11.3094C14.9595 8.53207 12.3433 6.47119 9.12033 5.12673C7.55253 4.47311 5.91677 4.03349 4.21306 3.85904C3.37577 3.77297 2.52877 3.76599 1.69147 3.6776C0.895437 3.59387 0.361511 3.14029 0.118817 2.41456C-0.126304 1.67487 0.070278 1.0259 0.65517 0.490913C1.04833 0.130375 1.53615 -0.0045362 2.07008 0.000115907C5.72747 0.0373327 9.17858 0.863081 12.3967 2.53086C15.343 4.05675 17.8015 6.12461 19.777 8.71816C21.4104 10.8628 22.5753 13.2237 23.284 15.7894C23.6504 17.1175 23.8713 18.4666 23.9562 19.839C23.9659 19.9786 23.9853 20.1205 24.0023 20.26V21.3393C23.8955 21.8603 23.6795 22.3349 23.1966 22.621C22.9005 22.7954 22.5462 22.8792 22.2185 23.0024H21.937V23.0001Z" fill="#129096"/>
<path d="M14.7635 23.0001C14.3558 22.921 13.965 22.8117 13.6447 22.5349C13.2491 22.193 13.004 21.7789 12.9821 21.2672C12.9409 20.2251 12.8559 19.1877 12.521 18.1875C11.2202 14.303 8.51171 11.8351 4.38592 10.8372C3.61415 10.6511 2.79627 10.6139 1.99781 10.5627C1.05373 10.5022 0.345062 10.0417 0.0878069 9.23686C-0.298076 8.03197 0.633868 6.8387 1.98325 6.85266C5.85907 6.88755 9.23251 8.16921 12.0793 10.6883C14.1859 12.5515 15.5959 14.8333 16.341 17.485C16.6735 18.669 16.841 19.8762 16.8313 21.1044C16.824 22.086 16.1493 22.8187 15.13 22.9652C15.1009 22.9699 15.0742 22.9885 15.0475 23.0001H14.7659H14.7635Z" fill="#129096"/>
<path d="M7.79029 19.2527C7.78058 21.3066 6.04047 22.9674 3.90962 22.9557C1.78362 22.9441 0.0532107 21.281 0.0507838 19.2457C0.0483568 17.1941 1.80546 15.5217 3.95088 15.538C6.08415 15.5519 7.8 17.2127 7.79029 19.2527Z" fill="#129096"/>
</g>
<defs>
<clipPath id="clip0_13_5605">
<rect width="24" height="23" fill="white"/>
</clipPath>
</defs>
</svg>
