<?xml version="1.0" encoding="utf-8"?>
<!-- Generator: Adobe Illustrator 27.0.0, SVG Export Plug-In . SVG Version: 6.00 Build 0)  -->
<svg version="1.1" id="圖層_1" xmlns="http://www.w3.org/2000/svg" xmlns:xlink="http://www.w3.org/1999/xlink" x="0px" y="0px"
	 viewBox="0 0 32 32" style="enable-background:new 0 0 32 32;" xml:space="preserve">
<style type="text/css">
	.st0{fill:#929292;}
</style>
<path class="st0" d="M4,13.7V5.9C4,4.7,4.9,3.8,6,3.8h7.5c0.5,0,1.1,0.2,1.5,0.6l12.4,13.2c0.8,0.8,0.8,2.1,0,2.9l-7.5,7
	c-0.8,0.8-2.1,0.8-2.9,0L4.6,15.1C4.2,14.8,4,14.2,4,13.7z M8.8,6.5c-1.1,0-2.1,0.9-2.1,2.1s0.9,2.1,2.1,2.1s2.1-0.9,2.1-2.1
	S9.9,6.5,8.8,6.5z"/>
</svg>
