<svg width="28" height="28" viewBox="0 0 28 28" fill="none" xmlns="http://www.w3.org/2000/svg">
<g clip-path="url(#clip0_13_3687)">
<path d="M10.8853 13.4168H13.417C14.8094 13.4168 16.1447 13.97 17.1293 14.9545C18.1139 15.9391 18.667 17.2744 18.667 18.6668H10.4992L10.5003 19.8335H19.8337V18.6668C19.83 17.4255 19.4713 16.211 18.8 15.1668H22.167C23.2698 15.1665 24.3501 15.4788 25.2826 16.0675C26.2151 16.6563 26.9617 17.4972 27.4357 18.493C24.6765 22.1342 20.2093 24.5002 15.167 24.5002C11.9458 24.5002 9.21699 23.8118 7.00033 22.6043V11.7497C8.41971 11.953 9.76004 12.5282 10.8853 13.4168ZM5.83366 22.1668C5.83366 22.4762 5.71074 22.773 5.49195 22.9918C5.27316 23.2106 4.97641 23.3335 4.66699 23.3335H2.33366C2.02424 23.3335 1.72749 23.2106 1.5087 22.9918C1.28991 22.773 1.16699 22.4762 1.16699 22.1668V11.6668C1.16699 11.3574 1.28991 11.0607 1.5087 10.8419C1.72749 10.6231 2.02424 10.5002 2.33366 10.5002H4.66699C4.97641 10.5002 5.27316 10.6231 5.49195 10.8419C5.71074 11.0607 5.83366 11.3574 5.83366 11.6668V22.1668ZM21.0003 5.8335C21.9286 5.8335 22.8188 6.20224 23.4752 6.85862C24.1316 7.515 24.5003 8.40524 24.5003 9.3335C24.5003 10.2618 24.1316 11.152 23.4752 11.8084C22.8188 12.4647 21.9286 12.8335 21.0003 12.8335C20.0721 12.8335 19.1818 12.4647 18.5255 11.8084C17.8691 11.152 17.5003 10.2618 17.5003 9.3335C17.5003 8.40524 17.8691 7.515 18.5255 6.85862C19.1818 6.20224 20.0721 5.8335 21.0003 5.8335ZM12.8337 2.3335C13.7619 2.3335 14.6522 2.70225 15.3085 3.35862C15.9649 4.015 16.3337 4.90524 16.3337 5.8335C16.3337 6.76175 15.9649 7.65199 15.3085 8.30837C14.6522 8.96475 13.7619 9.3335 12.8337 9.3335C11.9054 9.3335 11.0152 8.96475 10.3588 8.30837C9.70241 7.65199 9.33366 6.76175 9.33366 5.8335C9.33366 4.90524 9.70241 4.015 10.3588 3.35862C11.0152 2.70225 11.9054 2.3335 12.8337 2.3335Z" fill="#333333"/>
</g>
<defs>
<clipPath id="clip0_13_3687">
<rect width="28" height="28" fill="white"/>
</clipPath>
</defs>
</svg>
