<svg width="62" height="62" viewBox="0 0 62 62" fill="none" xmlns="http://www.w3.org/2000/svg">
<path d="M55.6526 16.7867C56.8332 21.3902 56.8332 31.0002 56.8332 31.0002C56.8332 31.0002 56.8332 40.6102 55.6526 45.2137C54.9964 47.7583 53.077 49.7603 50.6461 50.4372C46.2312 51.6668 30.9998 51.6668 30.9998 51.6668C30.9998 51.6668 15.7763 51.6668 11.3536 50.4372C8.91234 49.75 6.9955 47.7505 6.34709 45.2137C5.1665 40.6102 5.1665 31.0002 5.1665 31.0002C5.1665 31.0002 5.1665 21.3902 6.34709 16.7867C7.00325 14.2421 8.92267 12.24 11.3536 11.5632C15.7763 10.3335 30.9998 10.3335 30.9998 10.3335C30.9998 10.3335 46.2312 10.3335 50.6461 11.5632C53.0873 12.2503 55.0042 14.2498 55.6526 16.7867ZM25.8332 40.0418L41.3332 31.0002L25.8332 21.9585V40.0418Z" fill="white"/>
</svg>
