<svg width="62" height="63" viewBox="0 0 62 63" fill="none" xmlns="http://www.w3.org/2000/svg">
<g clip-path="url(#clip0_13_330)">
<path d="M28.4165 54.3088V51.5446C24.1123 50.9223 20.1765 48.7701 17.3299 45.4822C14.4832 42.1944 12.9165 37.991 12.9165 33.6421V20.7254C12.9165 18.3507 13.3842 15.9992 14.293 13.8052C15.2018 11.6113 16.5338 9.61777 18.213 7.93858C19.8922 6.25938 21.8857 4.92737 24.0796 4.0186C26.2736 3.10983 28.6251 2.64209 30.9998 2.64209C33.3746 2.64209 35.7261 3.10983 37.92 4.0186C40.114 4.92737 42.1075 6.25938 43.7867 7.93858C45.4659 9.61777 46.7979 11.6113 47.7067 13.8052C48.6154 15.9992 49.0832 18.3507 49.0832 20.7254V33.6421C49.0832 37.991 47.5164 42.1944 44.6698 45.4822C41.8232 48.7701 37.8873 50.9223 33.5832 51.5446V54.3088H43.9165V59.4754H18.0832V54.3088H28.4165ZM30.9998 23.3088C30.3147 23.3088 29.6576 23.0366 29.1731 22.5521C28.6887 22.0676 28.4165 21.4106 28.4165 20.7254C28.4165 20.0403 28.6887 19.3832 29.1731 18.8987C29.6576 18.4143 30.3147 18.1421 30.9998 18.1421C31.685 18.1421 32.3421 18.4143 32.8265 18.8987C33.311 19.3832 33.5832 20.0403 33.5832 20.7254C33.5832 21.4106 33.311 22.0676 32.8265 22.5521C32.3421 23.0366 31.685 23.3088 30.9998 23.3088ZM30.9998 28.4754C33.0553 28.4754 35.0265 27.6589 36.4799 26.2055C37.9333 24.7521 38.7498 22.7809 38.7498 20.7254C38.7498 18.67 37.9333 16.6988 36.4799 15.2453C35.0265 13.7919 33.0553 12.9754 30.9998 12.9754C28.9444 12.9754 26.9732 13.7919 25.5198 15.2453C24.0664 16.6988 23.2498 18.67 23.2498 20.7254C23.2498 22.7809 24.0664 24.7521 25.5198 26.2055C26.9732 27.6589 28.9444 28.4754 30.9998 28.4754Z" fill="white"/>
</g>
<defs>
<clipPath id="clip0_13_330">
<rect width="62" height="62" fill="white" transform="translate(0 0.0585938)"/>
</clipPath>
</defs>
</svg>
