<?xml version="1.0" encoding="utf-8"?>
<!-- Generator: Adobe Illustrator 25.2.3, SVG Export Plug-In . SVG Version: 6.00 Build 0)  -->
<svg version="1.1" id="Capa_1" xmlns="http://www.w3.org/2000/svg" xmlns:xlink="http://www.w3.org/1999/xlink" x="0px" y="0px"
	 viewBox="0 0 50 50" style="enable-background:new 0 0 50 50;" xml:space="preserve">
<g>
	<path d="M38.7,16.7v5.6c0,0.3-0.2,0.5-0.5,0.5H0.6c-0.3,0-0.5,0.2-0.5,0.5V27c0,0.3,0.2,0.5,0.5,0.5h37.6c0.3,0,0.5,0.2,0.5,0.5
		l0,5.6c0,0.4,0.5,0.7,0.8,0.4c2.2-1.7,7.5-6.1,10.1-8.3c0.4-0.3,0.4-0.7,0-1.1l-10.1-8.3C39.2,16,38.7,16.2,38.7,16.7z"/>
</g>
</svg>
