<svg width="28" height="28" viewBox="0 0 28 28" fill="none" xmlns="http://www.w3.org/2000/svg">
<g clip-path="url(#clip0_13_3705)">
<path d="M8.6219 19.2953C7.00194 18.1529 5.78777 16.5244 5.1553 14.6457C4.52284 12.7671 4.50492 10.7359 5.10416 8.84634C5.7034 6.95683 6.88866 5.30717 8.48822 4.13638C10.0878 2.96559 12.0186 2.33447 14.0008 2.33447C15.9831 2.33447 17.9138 2.96559 19.5134 4.13638C21.113 5.30717 22.2982 6.95683 22.8975 8.84634C23.4967 10.7359 23.4788 12.7671 22.8463 14.6457C22.2139 16.5244 20.9997 18.1529 19.3797 19.2953L21.8099 24.8486C21.8489 24.9375 21.8651 25.0347 21.8571 25.1315C21.849 25.2282 21.817 25.3214 21.7638 25.4027C21.7106 25.4839 21.638 25.5505 21.5525 25.5966C21.4671 25.6427 21.3715 25.6667 21.2744 25.6664H6.72606C6.62913 25.6666 6.53369 25.6426 6.44837 25.5966C6.36305 25.5506 6.29054 25.484 6.23738 25.403C6.18423 25.3219 6.15212 25.2289 6.14394 25.1323C6.13577 25.0357 6.15179 24.9386 6.19056 24.8498L8.62073 19.2953H8.6219ZM9.4724 12.7981C9.7262 13.8067 10.3095 14.7016 11.1297 15.341C11.95 15.9805 12.9602 16.3277 14.0002 16.3277C15.0402 16.3277 16.0505 15.9805 16.8707 15.341C17.691 14.7016 18.2743 13.8067 18.5281 12.7981L16.2647 12.2323C16.1391 12.7379 15.8479 13.1869 15.4376 13.5078C15.0272 13.8287 14.5212 14.003 14.0002 14.003C13.4793 14.003 12.9733 13.8287 12.5629 13.5078C12.1525 13.1869 11.8613 12.7379 11.7357 12.2323L9.4724 12.7981Z" fill="#129096"/>
</g>
<defs>
<clipPath id="clip0_13_3705">
<rect width="28" height="28" fill="white"/>
</clipPath>
</defs>
</svg>
